<svg width="56" height="56" viewBox="0 0 56 56" fill="none" xmlns="http://www.w3.org/2000/svg">
<path d="M51.0994 28.1894C51.0994 33.79 49.1035 38.8842 45.7669 42.8762C41.5664 47.9108 35.2508 51.0985 28.1606 51.0985C21.3683 51.0985 15.2909 48.1492 11.0904 43.472C7.48577 39.4205 5.28125 34.0581 5.28125 28.1894C5.28125 15.5283 15.5293 5.28027 28.1903 5.28027C40.8514 5.28027 51.0994 15.5283 51.0994 28.1894Z" fill="#2A2E37"/>
<path d="M45.7936 42.8764C41.5931 47.911 35.2775 51.0986 28.1873 51.0986C21.395 51.0986 15.3177 48.1494 11.1172 43.4722C11.8322 42.9062 12.7259 42.3997 13.8281 41.9529L14.6623 41.6252C16.2412 40.9996 18.2968 40.225 21.0673 39.0632C21.6929 38.7951 22.1993 38.3184 22.4675 37.6928C22.6164 37.3651 22.7058 36.9778 22.7058 36.5905V31.4368C22.6164 31.3176 22.527 31.2282 22.4675 31.1091C22.0206 30.4537 21.7227 29.6791 21.6333 28.845L21.1865 28.6364C19.8459 28.9641 19.9353 27.5342 19.6076 24.7934C19.4586 23.6614 19.6373 23.423 20.1438 23.2443L20.5609 22.6783C17.9989 16.8691 19.2799 13.2346 21.8121 11.9536C20.9779 10.1066 20.9183 9.45117 20.9183 9.45117C20.9183 9.45117 26.3105 10.3449 28.1873 9.98741C30.5408 9.51075 34.1752 10.0768 35.5158 13.2048C37.7501 14.0985 38.6438 15.4987 38.8226 17.0478C39.1503 19.4907 37.7501 22.1718 37.482 23.2145C37.5118 23.2741 37.5416 23.3039 37.5416 23.3337C37.8991 23.5124 38.0182 23.8103 37.8991 24.7934C37.5714 27.3852 37.6607 28.9939 36.3202 28.6364L35.1285 30.7218C35.069 30.9601 35.069 31.0495 35.0392 31.2282C34.9796 31.6155 35.0094 32.3901 35.0094 36.6501C35.0094 37.1566 35.1583 37.6332 35.4264 38.0801C35.7243 38.5269 36.1414 38.9142 36.6777 39.1228C36.6777 39.1228 36.7074 39.1228 36.7372 39.1526C39.8057 40.4336 42.0102 41.2677 43.6189 41.8933C44.453 42.1614 45.168 42.5189 45.7936 42.8764Z" fill="#8E94A7"/>
<path d="M37.5459 23.1847C37.6651 22.5293 37.3671 21.725 37.1288 21.1589C37.099 21.0696 37.0394 20.9802 37.0097 20.861C35.967 18.7757 33.6731 17.9415 31.4686 17.8224C25.8381 17.5245 25.3317 18.5969 23.574 16.9882C24.1103 17.8224 24.1698 19.1034 23.3357 20.7121C22.7399 21.8441 21.6078 22.3506 20.6247 22.6783C18.0627 16.8691 19.3437 13.2346 21.876 11.9536C21.0418 10.1066 20.9822 9.45117 20.9822 9.45117C20.9822 9.45117 26.3744 10.3449 28.2214 9.98741C30.5749 9.51075 34.2093 10.0768 35.5499 13.2048C37.7842 14.0985 38.6481 15.4987 38.8567 17.0478C39.1844 19.4609 37.814 22.1122 37.5459 23.1847Z" fill="#464D60"/>
<path d="M35.4873 38.0209V39.0338H22.4688V37.723C22.6177 37.3953 22.7071 37.008 22.7071 36.6207V31.4371C22.6177 31.318 22.5283 31.2286 22.4688 31.1094V30.8115C22.7369 31.2882 23.0944 31.735 23.5412 32.0925L27.6226 34.9226C28.5759 35.727 29.9462 35.7568 30.9293 34.9822L34.7425 31.5563C34.8617 31.4371 35.0107 31.318 35.1298 31.1988C35.0702 31.5861 35.1 32.3606 35.1 36.6207C35.0702 37.1272 35.2192 37.6336 35.4873 38.0209Z" fill="url(#paint0_linear_5223_7847)"/>
<path d="M3.63845 16.64C3.07784 16.3786 2.83327 15.711 3.11689 15.1613C5.66632 10.22 9.6342 6.14133 14.5228 3.45689C19.7391 0.592472 25.7324 -0.535469 31.6331 0.23671C37.5339 1.00889 43.0351 3.64103 47.3388 7.75124C51.6424 11.8615 54.5245 17.236 55.567 23.095C56.6095 28.954 55.7582 34.9928 53.1365 40.3352C50.5148 45.6777 46.2591 50.0459 40.9869 52.8061C35.7146 55.5663 29.7001 56.5749 23.8159 55.6856C18.3014 54.8522 13.1701 52.3925 9.07269 48.6339C8.61686 48.2158 8.61615 47.5048 9.05217 47.0661C9.4882 46.6273 10.1958 46.6271 10.653 47.0437C14.4117 50.4675 19.1069 52.7085 24.1506 53.4708C29.5641 54.2889 35.0975 53.361 39.9479 50.8216C44.7984 48.2822 48.7136 44.2635 51.1255 39.3484C53.5375 34.4334 54.3208 28.8777 53.3617 23.4874C52.4026 18.0971 49.751 13.1525 45.7917 9.37114C41.8323 5.58974 36.7712 3.16818 31.3425 2.45778C25.9138 1.74737 20.4 2.78507 15.601 5.42034C11.1297 7.87559 7.4957 11.5986 5.14878 16.1088C4.86325 16.6575 4.19905 16.9014 3.63845 16.64Z" fill="url(#paint1_linear_5223_7847)"/>
<defs>
<linearGradient id="paint0_linear_5223_7847" x1="28.9529" y1="38.7777" x2="28.9529" y2="34.4709" gradientUnits="userSpaceOnUse">
<stop stop-color="#8E94A7"/>
<stop offset="0.9913" stop-color="#6C707C"/>
</linearGradient>
<linearGradient id="paint1_linear_5223_7847" x1="28" y1="0" x2="28" y2="56" gradientUnits="userSpaceOnUse">
<stop stop-color="#FEEAC1"/>
<stop offset="1" stop-color="#E3A456"/>
</linearGradient>
</defs>
</svg>
